<svg xmlns="http://www.w3.org/2000/svg" width="91mm" height="61mm" viewBox="0 0 91 61">
  <!-- Visitenkarte Rückseite. 91×61 mm inkl. 3 mm Beschnitt → Endformat 85×55 mm.
       Heller Grund, schwarzer Rand + Amber-Streifen links, QR auf weißer Karte.
       Der QR-Code wird von build.py zwischen den QR-Markern erzeugt (Ziel:
       https://deutschmike.dev, Fehlerkorrektur M). Alle Koordinaten in mm. -->
  <defs>
    <style>
      @font-face { font-family:"Poppins"; font-weight:700; font-display:block;
        src:url("../../assets/fonts/poppins-700.woff2") format("woff2"); }
      @font-face { font-family:"Poppins"; font-weight:600; font-display:block;
        src:url("../../assets/fonts/poppins-600.woff2") format("woff2"); }
      .name { font-family:"Poppins"; font-weight:700; }
      .sans { font-family:"Poppins"; font-weight:600; }
    </style>
  </defs>

  <!-- Heller Grund (volle Beschnittfläche) -->
  <rect x="0" y="0" width="91" height="61" fill="#f7f7f2"/>
  <!-- schwarzer Rand links + Amber-Streifen daneben (bluten in den Beschnitt) -->
  <rect x="0" y="0" width="4" height="61" fill="#0c0d0e"/>
  <rect x="4" y="0" width="1.3" height="61" fill="#efaa14"/>

  <!-- Name + Rolle -->
  <text class="name" x="10" y="15" font-size="4.4" fill="#231f20">Mike Deutsch</text>
  <text class="sans" x="10" y="19.6" font-size="2.5" fill="#5a5450">Anwendungsentwicklung · Bautzen</text>

  <!-- Claim: zweiter Satz im dunkleren Amber als Akzent -->
  <text class="name" x="10" y="33" font-size="4.8" fill="#231f20">Ihre Idee.</text>
  <text class="name" x="10" y="39.6" font-size="4.8" fill="#de8f0c">Meine Umsetzung.</text>

  <!-- Hinweis zum QR -->
  <text class="sans" x="10" y="51" font-size="2.6" fill="#de8f0c">Portfolio &amp; Projekte scannen →</text>

  <!-- Weiße QR-Karte (liefert zugleich die Ruhezone) -->
  <rect x="59" y="15" width="25" height="25" rx="2" fill="#ffffff"/>
  <!-- QR_START (von build.py erzeugt) -->
  <g fill="#0c0d0e" shape-rendering="crispEdges">
    <rect x="62.000" y="18.000" width="0.760" height="0.760"/>
    <rect x="62.760" y="18.000" width="0.760" height="0.760"/>
    <rect x="63.520" y="18.000" width="0.760" height="0.760"/>
    <rect x="64.280" y="18.000" width="0.760" height="0.760"/>
    <rect x="65.040" y="18.000" width="0.760" height="0.760"/>
    <rect x="65.800" y="18.000" width="0.760" height="0.760"/>
    <rect x="66.560" y="18.000" width="0.760" height="0.760"/>
    <rect x="68.080" y="18.000" width="0.760" height="0.760"/>
    <rect x="68.840" y="18.000" width="0.760" height="0.760"/>
    <rect x="70.360" y="18.000" width="0.760" height="0.760"/>
    <rect x="71.120" y="18.000" width="0.760" height="0.760"/>
    <rect x="72.640" y="18.000" width="0.760" height="0.760"/>
    <rect x="75.680" y="18.000" width="0.760" height="0.760"/>
    <rect x="76.440" y="18.000" width="0.760" height="0.760"/>
    <rect x="77.200" y="18.000" width="0.760" height="0.760"/>
    <rect x="77.960" y="18.000" width="0.760" height="0.760"/>
    <rect x="78.720" y="18.000" width="0.760" height="0.760"/>
    <rect x="79.480" y="18.000" width="0.760" height="0.760"/>
    <rect x="80.240" y="18.000" width="0.760" height="0.760"/>
    <rect x="62.000" y="18.760" width="0.760" height="0.760"/>
    <rect x="66.560" y="18.760" width="0.760" height="0.760"/>
    <rect x="68.080" y="18.760" width="0.760" height="0.760"/>
    <rect x="68.840" y="18.760" width="0.760" height="0.760"/>
    <rect x="72.640" y="18.760" width="0.760" height="0.760"/>
    <rect x="74.160" y="18.760" width="0.760" height="0.760"/>
    <rect x="75.680" y="18.760" width="0.760" height="0.760"/>
    <rect x="80.240" y="18.760" width="0.760" height="0.760"/>
    <rect x="62.000" y="19.520" width="0.760" height="0.760"/>
    <rect x="63.520" y="19.520" width="0.760" height="0.760"/>
    <rect x="64.280" y="19.520" width="0.760" height="0.760"/>
    <rect x="65.040" y="19.520" width="0.760" height="0.760"/>
    <rect x="66.560" y="19.520" width="0.760" height="0.760"/>
    <rect x="68.080" y="19.520" width="0.760" height="0.760"/>
    <rect x="68.840" y="19.520" width="0.760" height="0.760"/>
    <rect x="71.880" y="19.520" width="0.760" height="0.760"/>
    <rect x="72.640" y="19.520" width="0.760" height="0.760"/>
    <rect x="73.400" y="19.520" width="0.760" height="0.760"/>
    <rect x="74.160" y="19.520" width="0.760" height="0.760"/>
    <rect x="75.680" y="19.520" width="0.760" height="0.760"/>
    <rect x="77.200" y="19.520" width="0.760" height="0.760"/>
    <rect x="77.960" y="19.520" width="0.760" height="0.760"/>
    <rect x="78.720" y="19.520" width="0.760" height="0.760"/>
    <rect x="80.240" y="19.520" width="0.760" height="0.760"/>
    <rect x="62.000" y="20.280" width="0.760" height="0.760"/>
    <rect x="63.520" y="20.280" width="0.760" height="0.760"/>
    <rect x="64.280" y="20.280" width="0.760" height="0.760"/>
    <rect x="65.040" y="20.280" width="0.760" height="0.760"/>
    <rect x="66.560" y="20.280" width="0.760" height="0.760"/>
    <rect x="68.840" y="20.280" width="0.760" height="0.760"/>
    <rect x="70.360" y="20.280" width="0.760" height="0.760"/>
    <rect x="71.880" y="20.280" width="0.760" height="0.760"/>
    <rect x="73.400" y="20.280" width="0.760" height="0.760"/>
    <rect x="74.160" y="20.280" width="0.760" height="0.760"/>
    <rect x="75.680" y="20.280" width="0.760" height="0.760"/>
    <rect x="77.200" y="20.280" width="0.760" height="0.760"/>
    <rect x="77.960" y="20.280" width="0.760" height="0.760"/>
    <rect x="78.720" y="20.280" width="0.760" height="0.760"/>
    <rect x="80.240" y="20.280" width="0.760" height="0.760"/>
    <rect x="62.000" y="21.040" width="0.760" height="0.760"/>
    <rect x="63.520" y="21.040" width="0.760" height="0.760"/>
    <rect x="64.280" y="21.040" width="0.760" height="0.760"/>
    <rect x="65.040" y="21.040" width="0.760" height="0.760"/>
    <rect x="66.560" y="21.040" width="0.760" height="0.760"/>
    <rect x="68.080" y="21.040" width="0.760" height="0.760"/>
    <rect x="70.360" y="21.040" width="0.760" height="0.760"/>
    <rect x="72.640" y="21.040" width="0.760" height="0.760"/>
    <rect x="74.160" y="21.040" width="0.760" height="0.760"/>
    <rect x="75.680" y="21.040" width="0.760" height="0.760"/>
    <rect x="77.200" y="21.040" width="0.760" height="0.760"/>
    <rect x="77.960" y="21.040" width="0.760" height="0.760"/>
    <rect x="78.720" y="21.040" width="0.760" height="0.760"/>
    <rect x="80.240" y="21.040" width="0.760" height="0.760"/>
    <rect x="62.000" y="21.800" width="0.760" height="0.760"/>
    <rect x="66.560" y="21.800" width="0.760" height="0.760"/>
    <rect x="68.840" y="21.800" width="0.760" height="0.760"/>
    <rect x="69.600" y="21.800" width="0.760" height="0.760"/>
    <rect x="71.120" y="21.800" width="0.760" height="0.760"/>
    <rect x="72.640" y="21.800" width="0.760" height="0.760"/>
    <rect x="75.680" y="21.800" width="0.760" height="0.760"/>
    <rect x="80.240" y="21.800" width="0.760" height="0.760"/>
    <rect x="62.000" y="22.560" width="0.760" height="0.760"/>
    <rect x="62.760" y="22.560" width="0.760" height="0.760"/>
    <rect x="63.520" y="22.560" width="0.760" height="0.760"/>
    <rect x="64.280" y="22.560" width="0.760" height="0.760"/>
    <rect x="65.040" y="22.560" width="0.760" height="0.760"/>
    <rect x="65.800" y="22.560" width="0.760" height="0.760"/>
    <rect x="66.560" y="22.560" width="0.760" height="0.760"/>
    <rect x="68.080" y="22.560" width="0.760" height="0.760"/>
    <rect x="69.600" y="22.560" width="0.760" height="0.760"/>
    <rect x="71.120" y="22.560" width="0.760" height="0.760"/>
    <rect x="72.640" y="22.560" width="0.760" height="0.760"/>
    <rect x="74.160" y="22.560" width="0.760" height="0.760"/>
    <rect x="75.680" y="22.560" width="0.760" height="0.760"/>
    <rect x="76.440" y="22.560" width="0.760" height="0.760"/>
    <rect x="77.200" y="22.560" width="0.760" height="0.760"/>
    <rect x="77.960" y="22.560" width="0.760" height="0.760"/>
    <rect x="78.720" y="22.560" width="0.760" height="0.760"/>
    <rect x="79.480" y="22.560" width="0.760" height="0.760"/>
    <rect x="80.240" y="22.560" width="0.760" height="0.760"/>
    <rect x="68.840" y="23.320" width="0.760" height="0.760"/>
    <rect x="69.600" y="23.320" width="0.760" height="0.760"/>
    <rect x="70.360" y="23.320" width="0.760" height="0.760"/>
    <rect x="71.880" y="23.320" width="0.760" height="0.760"/>
    <rect x="74.160" y="23.320" width="0.760" height="0.760"/>
    <rect x="62.000" y="24.080" width="0.760" height="0.760"/>
    <rect x="64.280" y="24.080" width="0.760" height="0.760"/>
    <rect x="65.040" y="24.080" width="0.760" height="0.760"/>
    <rect x="65.800" y="24.080" width="0.760" height="0.760"/>
    <rect x="66.560" y="24.080" width="0.760" height="0.760"/>
    <rect x="67.320" y="24.080" width="0.760" height="0.760"/>
    <rect x="68.080" y="24.080" width="0.760" height="0.760"/>
    <rect x="68.840" y="24.080" width="0.760" height="0.760"/>
    <rect x="69.600" y="24.080" width="0.760" height="0.760"/>
    <rect x="70.360" y="24.080" width="0.760" height="0.760"/>
    <rect x="71.120" y="24.080" width="0.760" height="0.760"/>
    <rect x="74.160" y="24.080" width="0.760" height="0.760"/>
    <rect x="74.920" y="24.080" width="0.760" height="0.760"/>
    <rect x="77.200" y="24.080" width="0.760" height="0.760"/>
    <rect x="78.720" y="24.080" width="0.760" height="0.760"/>
    <rect x="79.480" y="24.080" width="0.760" height="0.760"/>
    <rect x="80.240" y="24.080" width="0.760" height="0.760"/>
    <rect x="64.280" y="24.840" width="0.760" height="0.760"/>
    <rect x="65.040" y="24.840" width="0.760" height="0.760"/>
    <rect x="67.320" y="24.840" width="0.760" height="0.760"/>
    <rect x="68.080" y="24.840" width="0.760" height="0.760"/>
    <rect x="71.880" y="24.840" width="0.760" height="0.760"/>
    <rect x="72.640" y="24.840" width="0.760" height="0.760"/>
    <rect x="73.400" y="24.840" width="0.760" height="0.760"/>
    <rect x="76.440" y="24.840" width="0.760" height="0.760"/>
    <rect x="77.200" y="24.840" width="0.760" height="0.760"/>
    <rect x="77.960" y="24.840" width="0.760" height="0.760"/>
    <rect x="78.720" y="24.840" width="0.760" height="0.760"/>
    <rect x="79.480" y="24.840" width="0.760" height="0.760"/>
    <rect x="63.520" y="25.600" width="0.760" height="0.760"/>
    <rect x="66.560" y="25.600" width="0.760" height="0.760"/>
    <rect x="67.320" y="25.600" width="0.760" height="0.760"/>
    <rect x="68.080" y="25.600" width="0.760" height="0.760"/>
    <rect x="71.880" y="25.600" width="0.760" height="0.760"/>
    <rect x="73.400" y="25.600" width="0.760" height="0.760"/>
    <rect x="75.680" y="25.600" width="0.760" height="0.760"/>
    <rect x="77.200" y="25.600" width="0.760" height="0.760"/>
    <rect x="77.960" y="25.600" width="0.760" height="0.760"/>
    <rect x="80.240" y="25.600" width="0.760" height="0.760"/>
    <rect x="62.760" y="26.360" width="0.760" height="0.760"/>
    <rect x="63.520" y="26.360" width="0.760" height="0.760"/>
    <rect x="64.280" y="26.360" width="0.760" height="0.760"/>
    <rect x="65.040" y="26.360" width="0.760" height="0.760"/>
    <rect x="65.800" y="26.360" width="0.760" height="0.760"/>
    <rect x="67.320" y="26.360" width="0.760" height="0.760"/>
    <rect x="68.080" y="26.360" width="0.760" height="0.760"/>
    <rect x="71.120" y="26.360" width="0.760" height="0.760"/>
    <rect x="74.160" y="26.360" width="0.760" height="0.760"/>
    <rect x="75.680" y="26.360" width="0.760" height="0.760"/>
    <rect x="76.440" y="26.360" width="0.760" height="0.760"/>
    <rect x="77.960" y="26.360" width="0.760" height="0.760"/>
    <rect x="78.720" y="26.360" width="0.760" height="0.760"/>
    <rect x="79.480" y="26.360" width="0.760" height="0.760"/>
    <rect x="80.240" y="26.360" width="0.760" height="0.760"/>
    <rect x="65.040" y="27.120" width="0.760" height="0.760"/>
    <rect x="66.560" y="27.120" width="0.760" height="0.760"/>
    <rect x="67.320" y="27.120" width="0.760" height="0.760"/>
    <rect x="68.080" y="27.120" width="0.760" height="0.760"/>
    <rect x="69.600" y="27.120" width="0.760" height="0.760"/>
    <rect x="70.360" y="27.120" width="0.760" height="0.760"/>
    <rect x="74.160" y="27.120" width="0.760" height="0.760"/>
    <rect x="75.680" y="27.120" width="0.760" height="0.760"/>
    <rect x="76.440" y="27.120" width="0.760" height="0.760"/>
    <rect x="80.240" y="27.120" width="0.760" height="0.760"/>
    <rect x="62.000" y="27.880" width="0.760" height="0.760"/>
    <rect x="62.760" y="27.880" width="0.760" height="0.760"/>
    <rect x="63.520" y="27.880" width="0.760" height="0.760"/>
    <rect x="65.040" y="27.880" width="0.760" height="0.760"/>
    <rect x="65.800" y="27.880" width="0.760" height="0.760"/>
    <rect x="68.080" y="27.880" width="0.760" height="0.760"/>
    <rect x="71.120" y="27.880" width="0.760" height="0.760"/>
    <rect x="71.880" y="27.880" width="0.760" height="0.760"/>
    <rect x="72.640" y="27.880" width="0.760" height="0.760"/>
    <rect x="73.400" y="27.880" width="0.760" height="0.760"/>
    <rect x="74.160" y="27.880" width="0.760" height="0.760"/>
    <rect x="74.920" y="27.880" width="0.760" height="0.760"/>
    <rect x="77.200" y="27.880" width="0.760" height="0.760"/>
    <rect x="79.480" y="27.880" width="0.760" height="0.760"/>
    <rect x="62.000" y="28.640" width="0.760" height="0.760"/>
    <rect x="62.760" y="28.640" width="0.760" height="0.760"/>
    <rect x="64.280" y="28.640" width="0.760" height="0.760"/>
    <rect x="65.040" y="28.640" width="0.760" height="0.760"/>
    <rect x="66.560" y="28.640" width="0.760" height="0.760"/>
    <rect x="67.320" y="28.640" width="0.760" height="0.760"/>
    <rect x="68.080" y="28.640" width="0.760" height="0.760"/>
    <rect x="68.840" y="28.640" width="0.760" height="0.760"/>
    <rect x="69.600" y="28.640" width="0.760" height="0.760"/>
    <rect x="71.880" y="28.640" width="0.760" height="0.760"/>
    <rect x="72.640" y="28.640" width="0.760" height="0.760"/>
    <rect x="73.400" y="28.640" width="0.760" height="0.760"/>
    <rect x="74.920" y="28.640" width="0.760" height="0.760"/>
    <rect x="75.680" y="28.640" width="0.760" height="0.760"/>
    <rect x="77.200" y="28.640" width="0.760" height="0.760"/>
    <rect x="77.960" y="28.640" width="0.760" height="0.760"/>
    <rect x="78.720" y="28.640" width="0.760" height="0.760"/>
    <rect x="79.480" y="28.640" width="0.760" height="0.760"/>
    <rect x="80.240" y="28.640" width="0.760" height="0.760"/>
    <rect x="62.000" y="29.400" width="0.760" height="0.760"/>
    <rect x="64.280" y="29.400" width="0.760" height="0.760"/>
    <rect x="65.040" y="29.400" width="0.760" height="0.760"/>
    <rect x="67.320" y="29.400" width="0.760" height="0.760"/>
    <rect x="68.080" y="29.400" width="0.760" height="0.760"/>
    <rect x="68.840" y="29.400" width="0.760" height="0.760"/>
    <rect x="71.120" y="29.400" width="0.760" height="0.760"/>
    <rect x="72.640" y="29.400" width="0.760" height="0.760"/>
    <rect x="73.400" y="29.400" width="0.760" height="0.760"/>
    <rect x="74.160" y="29.400" width="0.760" height="0.760"/>
    <rect x="74.920" y="29.400" width="0.760" height="0.760"/>
    <rect x="75.680" y="29.400" width="0.760" height="0.760"/>
    <rect x="76.440" y="29.400" width="0.760" height="0.760"/>
    <rect x="77.960" y="29.400" width="0.760" height="0.760"/>
    <rect x="78.720" y="29.400" width="0.760" height="0.760"/>
    <rect x="80.240" y="29.400" width="0.760" height="0.760"/>
    <rect x="62.000" y="30.160" width="0.760" height="0.760"/>
    <rect x="63.520" y="30.160" width="0.760" height="0.760"/>
    <rect x="64.280" y="30.160" width="0.760" height="0.760"/>
    <rect x="66.560" y="30.160" width="0.760" height="0.760"/>
    <rect x="68.080" y="30.160" width="0.760" height="0.760"/>
    <rect x="68.840" y="30.160" width="0.760" height="0.760"/>
    <rect x="69.600" y="30.160" width="0.760" height="0.760"/>
    <rect x="70.360" y="30.160" width="0.760" height="0.760"/>
    <rect x="71.120" y="30.160" width="0.760" height="0.760"/>
    <rect x="71.880" y="30.160" width="0.760" height="0.760"/>
    <rect x="73.400" y="30.160" width="0.760" height="0.760"/>
    <rect x="74.160" y="30.160" width="0.760" height="0.760"/>
    <rect x="74.920" y="30.160" width="0.760" height="0.760"/>
    <rect x="75.680" y="30.160" width="0.760" height="0.760"/>
    <rect x="76.440" y="30.160" width="0.760" height="0.760"/>
    <rect x="77.200" y="30.160" width="0.760" height="0.760"/>
    <rect x="78.720" y="30.160" width="0.760" height="0.760"/>
    <rect x="79.480" y="30.160" width="0.760" height="0.760"/>
    <rect x="68.080" y="30.920" width="0.760" height="0.760"/>
    <rect x="69.600" y="30.920" width="0.760" height="0.760"/>
    <rect x="70.360" y="30.920" width="0.760" height="0.760"/>
    <rect x="74.160" y="30.920" width="0.760" height="0.760"/>
    <rect x="77.200" y="30.920" width="0.760" height="0.760"/>
    <rect x="78.720" y="30.920" width="0.760" height="0.760"/>
    <rect x="79.480" y="30.920" width="0.760" height="0.760"/>
    <rect x="62.000" y="31.680" width="0.760" height="0.760"/>
    <rect x="62.760" y="31.680" width="0.760" height="0.760"/>
    <rect x="63.520" y="31.680" width="0.760" height="0.760"/>
    <rect x="64.280" y="31.680" width="0.760" height="0.760"/>
    <rect x="65.040" y="31.680" width="0.760" height="0.760"/>
    <rect x="65.800" y="31.680" width="0.760" height="0.760"/>
    <rect x="66.560" y="31.680" width="0.760" height="0.760"/>
    <rect x="68.080" y="31.680" width="0.760" height="0.760"/>
    <rect x="68.840" y="31.680" width="0.760" height="0.760"/>
    <rect x="69.600" y="31.680" width="0.760" height="0.760"/>
    <rect x="71.120" y="31.680" width="0.760" height="0.760"/>
    <rect x="71.880" y="31.680" width="0.760" height="0.760"/>
    <rect x="74.160" y="31.680" width="0.760" height="0.760"/>
    <rect x="75.680" y="31.680" width="0.760" height="0.760"/>
    <rect x="77.200" y="31.680" width="0.760" height="0.760"/>
    <rect x="80.240" y="31.680" width="0.760" height="0.760"/>
    <rect x="62.000" y="32.440" width="0.760" height="0.760"/>
    <rect x="66.560" y="32.440" width="0.760" height="0.760"/>
    <rect x="68.080" y="32.440" width="0.760" height="0.760"/>
    <rect x="70.360" y="32.440" width="0.760" height="0.760"/>
    <rect x="71.880" y="32.440" width="0.760" height="0.760"/>
    <rect x="73.400" y="32.440" width="0.760" height="0.760"/>
    <rect x="74.160" y="32.440" width="0.760" height="0.760"/>
    <rect x="77.200" y="32.440" width="0.760" height="0.760"/>
    <rect x="79.480" y="32.440" width="0.760" height="0.760"/>
    <rect x="62.000" y="33.200" width="0.760" height="0.760"/>
    <rect x="63.520" y="33.200" width="0.760" height="0.760"/>
    <rect x="64.280" y="33.200" width="0.760" height="0.760"/>
    <rect x="65.040" y="33.200" width="0.760" height="0.760"/>
    <rect x="66.560" y="33.200" width="0.760" height="0.760"/>
    <rect x="68.080" y="33.200" width="0.760" height="0.760"/>
    <rect x="68.840" y="33.200" width="0.760" height="0.760"/>
    <rect x="70.360" y="33.200" width="0.760" height="0.760"/>
    <rect x="71.120" y="33.200" width="0.760" height="0.760"/>
    <rect x="72.640" y="33.200" width="0.760" height="0.760"/>
    <rect x="73.400" y="33.200" width="0.760" height="0.760"/>
    <rect x="74.160" y="33.200" width="0.760" height="0.760"/>
    <rect x="74.920" y="33.200" width="0.760" height="0.760"/>
    <rect x="75.680" y="33.200" width="0.760" height="0.760"/>
    <rect x="76.440" y="33.200" width="0.760" height="0.760"/>
    <rect x="77.200" y="33.200" width="0.760" height="0.760"/>
    <rect x="79.480" y="33.200" width="0.760" height="0.760"/>
    <rect x="80.240" y="33.200" width="0.760" height="0.760"/>
    <rect x="62.000" y="33.960" width="0.760" height="0.760"/>
    <rect x="63.520" y="33.960" width="0.760" height="0.760"/>
    <rect x="64.280" y="33.960" width="0.760" height="0.760"/>
    <rect x="65.040" y="33.960" width="0.760" height="0.760"/>
    <rect x="66.560" y="33.960" width="0.760" height="0.760"/>
    <rect x="68.080" y="33.960" width="0.760" height="0.760"/>
    <rect x="69.600" y="33.960" width="0.760" height="0.760"/>
    <rect x="71.120" y="33.960" width="0.760" height="0.760"/>
    <rect x="73.400" y="33.960" width="0.760" height="0.760"/>
    <rect x="74.920" y="33.960" width="0.760" height="0.760"/>
    <rect x="75.680" y="33.960" width="0.760" height="0.760"/>
    <rect x="79.480" y="33.960" width="0.760" height="0.760"/>
    <rect x="80.240" y="33.960" width="0.760" height="0.760"/>
    <rect x="62.000" y="34.720" width="0.760" height="0.760"/>
    <rect x="63.520" y="34.720" width="0.760" height="0.760"/>
    <rect x="64.280" y="34.720" width="0.760" height="0.760"/>
    <rect x="65.040" y="34.720" width="0.760" height="0.760"/>
    <rect x="66.560" y="34.720" width="0.760" height="0.760"/>
    <rect x="69.600" y="34.720" width="0.760" height="0.760"/>
    <rect x="70.360" y="34.720" width="0.760" height="0.760"/>
    <rect x="71.120" y="34.720" width="0.760" height="0.760"/>
    <rect x="71.880" y="34.720" width="0.760" height="0.760"/>
    <rect x="73.400" y="34.720" width="0.760" height="0.760"/>
    <rect x="77.200" y="34.720" width="0.760" height="0.760"/>
    <rect x="77.960" y="34.720" width="0.760" height="0.760"/>
    <rect x="78.720" y="34.720" width="0.760" height="0.760"/>
    <rect x="79.480" y="34.720" width="0.760" height="0.760"/>
    <rect x="80.240" y="34.720" width="0.760" height="0.760"/>
    <rect x="62.000" y="35.480" width="0.760" height="0.760"/>
    <rect x="66.560" y="35.480" width="0.760" height="0.760"/>
    <rect x="68.840" y="35.480" width="0.760" height="0.760"/>
    <rect x="70.360" y="35.480" width="0.760" height="0.760"/>
    <rect x="71.120" y="35.480" width="0.760" height="0.760"/>
    <rect x="73.400" y="35.480" width="0.760" height="0.760"/>
    <rect x="75.680" y="35.480" width="0.760" height="0.760"/>
    <rect x="76.440" y="35.480" width="0.760" height="0.760"/>
    <rect x="77.200" y="35.480" width="0.760" height="0.760"/>
    <rect x="78.720" y="35.480" width="0.760" height="0.760"/>
    <rect x="79.480" y="35.480" width="0.760" height="0.760"/>
    <rect x="80.240" y="35.480" width="0.760" height="0.760"/>
    <rect x="62.000" y="36.240" width="0.760" height="0.760"/>
    <rect x="62.760" y="36.240" width="0.760" height="0.760"/>
    <rect x="63.520" y="36.240" width="0.760" height="0.760"/>
    <rect x="64.280" y="36.240" width="0.760" height="0.760"/>
    <rect x="65.040" y="36.240" width="0.760" height="0.760"/>
    <rect x="65.800" y="36.240" width="0.760" height="0.760"/>
    <rect x="66.560" y="36.240" width="0.760" height="0.760"/>
    <rect x="68.080" y="36.240" width="0.760" height="0.760"/>
    <rect x="70.360" y="36.240" width="0.760" height="0.760"/>
    <rect x="71.120" y="36.240" width="0.760" height="0.760"/>
    <rect x="71.880" y="36.240" width="0.760" height="0.760"/>
    <rect x="72.640" y="36.240" width="0.760" height="0.760"/>
    <rect x="74.160" y="36.240" width="0.760" height="0.760"/>
    <rect x="74.920" y="36.240" width="0.760" height="0.760"/>
    <rect x="75.680" y="36.240" width="0.760" height="0.760"/>
    <rect x="77.960" y="36.240" width="0.760" height="0.760"/>
    <rect x="80.240" y="36.240" width="0.760" height="0.760"/>
  </g>
  <!-- QR_END -->
  <text class="sans" x="71.5" y="44.6" font-size="2.3" fill="#231f20" text-anchor="middle">deutschmike.dev</text>
</svg>
